<svg xmlns="http://www.w3.org/2000/svg" width="512" height="512"><path d="M0 0 C1.01790619 0.00215515 2.03581238 0.0043103 3.08456421 0.00653076 C17.69363523 0.05620146 32.02575853 0.30709809 46.375 3.3125 C47.34985352 3.51117676 48.32470703 3.70985352 49.32910156 3.91455078 C97.7109774 14.03517194 141.69928269 35.9516877 177.375 70.3125 C178.3640332 71.26068604 178.3640332 71.26068604 179.37304688 72.22802734 C188.86130305 81.37247479 197.6012044 90.66984009 205.375 101.3125 C206.23306152 102.46355017 207.09113451 103.61459177 207.94921875 104.765625 C213.98736829 112.95680614 219.34595521 121.47054105 224.375 130.3125 C224.73948242 130.94430176 225.10396484 131.57610352 225.47949219 132.22705078 C247.08534998 169.97532572 256.85198095 212.74189997 256.6875 255.9375 C256.68534485 256.95540619 256.6831897 257.97331238 256.68096924 259.02206421 C256.63129854 273.63113523 256.38040191 287.96325853 253.375 302.3125 C253.07698486 303.77478027 253.07698486 303.77478027 252.77294922 305.26660156 C242.65232806 353.6484774 220.7358123 397.63678269 186.375 433.3125 C185.74287598 433.97185547 185.11075195 434.63121094 184.45947266 435.31054688 C175.31502521 444.79880305 166.01765991 453.5387044 155.375 461.3125 C154.22394983 462.17056152 153.07290823 463.02863451 151.921875 463.88671875 C143.73224019 469.92427396 135.22961724 475.30707302 126.375 480.3125 C125.66778809 480.7146875 124.96057617 481.116875 124.23193359 481.53125 C101.09654164 494.5566741 75.92537591 503.30551461 49.9375 508.625 C49.21860596 508.77235596 48.49971191 508.91971191 47.7590332 509.0715332 C33.08339502 511.86090125 18.55831162 512.66142619 3.64770508 512.62817383 C0.70811513 512.6250221 -2.2304558 512.64854926 -5.16992188 512.67382812 C-18.54306192 512.71848737 -31.43916711 511.51301542 -44.625 509.3125 C-46.33055054 509.03031616 -46.33055054 509.03031616 -48.07055664 508.74243164 C-91.33802759 500.97044532 -132.38793216 480.98345309 -165.625 452.3125 C-166.37007813 451.67828125 -167.11515625 451.0440625 -167.8828125 450.390625 C-181.38779833 438.57948485 -194.05918743 425.82889772 -204.625 411.3125 C-205.48149066 410.16255169 -206.33826433 409.01281411 -207.1953125 407.86328125 C-213.23534209 399.67315742 -218.61867614 391.16870382 -223.625 382.3125 C-224.0271875 381.60528809 -224.429375 380.89807617 -224.84375 380.16943359 C-237.8691741 357.03404164 -246.61801461 331.86287591 -251.9375 305.875 C-252.08485596 305.15610596 -252.23221191 304.43721191 -252.3840332 303.6965332 C-255.35789088 288.05024391 -255.99800362 272.57681954 -255.9375 256.6875 C-255.93534485 255.66959381 -255.9331897 254.65168762 -255.93096924 253.60293579 C-255.88129854 238.99386477 -255.63040191 224.66174147 -252.625 210.3125 C-252.42632324 209.33764648 -252.22764648 208.36279297 -252.02294922 207.35839844 C-241.90232806 158.9765226 -219.9858123 114.98821731 -185.625 79.3125 C-184.99287598 78.65314453 -184.36075195 77.99378906 -183.70947266 77.31445312 C-174.56502521 67.82619695 -165.26765991 59.0862956 -154.625 51.3125 C-153.47394983 50.45443848 -152.32290823 49.59636549 -151.171875 48.73828125 C-142.98224019 42.70072604 -134.47961724 37.31792698 -125.625 32.3125 C-124.91778809 31.9103125 -124.21057617 31.508125 -123.48193359 31.09375 C-100.34654164 18.0683259 -75.17537591 9.31948539 -49.1875 4 C-48.46860596 3.85264404 -47.74971191 3.70528809 -47.0090332 3.5534668 C-31.36274391 0.57960912 -15.88931954 -0.06050362 0 0 Z " fill="#FEB54A" transform="translate(255.625,-0.3125)"></path><path d="M0 0 C7.87558411 6.75050067 7.87558411 6.75050067 11.00601292 9.84944534 C11.72134616 10.55538716 12.43667941 11.26132897 13.17368942 11.98866296 C13.93674438 12.74644532 14.69979934 13.50422768 15.48597717 14.28497314 C16.3141633 15.10383806 17.14234943 15.92270298 17.99563211 16.76638198 C20.27717747 19.0234451 22.55656556 21.28265922 24.83491838 23.54294419 C26.79327179 25.48503413 28.75336284 27.42536597 30.713408 29.36574826 C49.27537938 47.74246379 67.79238996 66.16464131 86.29998112 84.59610367 C88.7046991 86.99075431 91.10950879 89.3853128 93.5144043 91.77978516 C94.11208398 92.37488261 94.70976366 92.96998007 95.32555484 93.58311078 C105.02454792 103.23890621 114.74596014 112.87181683 124.47614116 122.4961721 C134.47211795 132.3843295 144.44531174 142.29502717 154.39724535 152.22751307 C159.98318178 157.80129187 165.57900419 163.36432085 171.20103645 168.90171051 C175.98435008 173.61302027 180.74702928 178.34399544 185.48372317 183.10219344 C187.90103608 185.52918985 190.32707706 187.94535587 192.7801609 190.33623695 C195.43425702 192.93305503 198.04893267 195.56404562 200.65687561 198.20709229 C201.44000706 198.95595176 202.22313851 199.70481123 203.03000122 200.47636342 C207.98544562 205.60735454 207.98544562 205.60735454 208.02791011 209.67059755 C207.53732515 212.22325428 206.87765983 214.55639285 206 217 C205.74033447 217.92063232 205.48066895 218.84126465 205.21313477 219.78979492 C204.34259126 222.26097077 203.46749248 224.72866958 202.5625 227.1875 C202.21614502 228.12948242 201.86979004 229.07146484 201.51293945 230.04199219 C191.12335679 257.58064502 176.10456784 282.64286237 157 305 C156.36320313 305.74894531 155.72640625 306.49789063 155.0703125 307.26953125 C143.25297532 320.76520621 130.51448412 333.43558025 116 344 C114.85005169 344.85649066 113.70031411 345.71326433 112.55078125 346.5703125 C95.47030652 359.16677317 76.66372891 369.63809855 57.0625 377.75 C55.79273315 378.28959351 55.79273315 378.28959351 54.49731445 378.84008789 C53.70542725 379.15582764 52.91354004 379.47156738 52.09765625 379.796875 C51.40164307 380.07885742 50.70562988 380.36083984 49.98852539 380.65136719 C47.29051792 381.12438802 46.34348834 380.39489841 44 379 C42.5029825 377.68166931 41.05666079 376.30492516 39.64666748 374.89390564 C38.78292511 374.03435776 37.91918274 373.17480988 37.02926636 372.28921509 C36.08028638 371.33475212 35.13140667 370.38018944 34.18261719 369.42553711 C33.1775357 368.42152881 32.17202135 367.41795368 31.16610718 366.41477966 C28.43869419 363.69221077 25.71756669 360.96343836 22.99765682 358.23337626 C20.15286646 355.3798034 17.30280639 352.53150278 14.45343018 349.68251038 C9.67191651 344.90006049 4.89429076 340.11375444 0.11914062 335.32495117 C-5.40913319 329.78092985 -10.94263849 324.24217474 -16.47915769 318.70638841 C-21.79960731 313.38654804 -27.11719934 308.06386143 -32.43318939 302.7395649 C-34.69876512 300.47045014 -36.96519581 298.20219436 -39.23227692 295.93458366 C-41.89729382 293.26856591 -44.55975877 290.60002561 -47.22022629 287.92946815 C-48.19979269 286.9469691 -49.18021902 285.96532659 -50.16154099 284.98458099 C-51.49487464 283.65173437 -52.82484252 282.31552321 -54.15460205 280.97911072 C-54.90158985 280.23044707 -55.64857765 279.48178343 -56.41820145 278.71043301 C-58 277 -58 277 -58 276 C-38.86 276 -19.72 276 0 276 C0 184.92 0 93.84 0 0 Z " fill="#F9880D" transform="translate(295,117)"></path><path d="M0 0 C21.12 0 42.24 0 64 0 C64 91.41 64 182.82 64 277 C44.86 277 25.72 277 6 277 C6 209.68 6 142.36 6 73 C-0.4219854 78.25435169 -6.58615676 83.33921912 -12.61328125 88.95703125 C-15.26694881 91.22850119 -18.0630868 93.11410336 -21 95 C-26.79806305 88.74196535 -32.35747163 82.39629179 -37.71484375 75.75390625 C-40.08366025 72.89917867 -42.54926417 70.1656079 -45.0625 67.4375 C-49.62764598 62.47942283 -53.86734167 57.32166338 -58 52 C-56.48601922 48.18511059 -54.27002932 46.36923371 -51.0625 43.875 C-47.07609331 40.70458529 -43.2415477 37.45622104 -39.5 34 C-35.05272888 29.90648909 -30.45282537 26.07557501 -25.75 22.28125 C-21.97582598 19.15040109 -18.39572209 15.82473547 -14.7890625 12.50390625 C-11.0032813 9.10518671 -7.07864278 5.9075747 -3.1171875 2.71484375 C-1.13793226 1.17273924 -1.13793226 1.17273924 0 0 Z " fill="#D8D8D7" transform="translate(230,116)"></path><path d="M0 0 C0 90.75 0 181.5 0 275 C-6.27 275 -12.54 275 -19 275 C-19 207.68 -19 140.36 -19 71 C-25.71744991 76.49609538 -32.11242595 81.83633361 -38.39453125 87.73828125 C-41.14730404 90.12786962 -43.93133263 92.04232461 -47 94 C-52.79806305 87.74196535 -58.35747163 81.39629179 -63.71484375 74.75390625 C-66.08366025 71.89917867 -68.54926417 69.1656079 -71.0625 66.4375 C-75.62764598 61.47942283 -79.86734167 56.32166338 -84 51 C-82.48601922 47.18511059 -80.27002932 45.36923371 -77.0625 42.875 C-73.07609331 39.70458529 -69.2415477 36.45622104 -65.5 33 C-61.05272888 28.90648909 -56.45282537 25.07557501 -51.75 21.28125 C-48.91900422 18.93281032 -46.20616402 16.49090098 -43.5 14 C-42.1078125 12.76636719 -42.1078125 12.76636719 -40.6875 11.5078125 C-37.97440811 9.08199712 -37.97440811 9.08199712 -35.8125 6.3671875 C-25.51008177 -4.73575647 -16.81260755 0 0 0 Z " fill="#F8FEFA" transform="translate(256,117)"></path><path d="M0 0 C0 15.84 0 31.68 0 48 C-4.14438932 44.4476663 -8.03046031 41.09346755 -11.83984375 37.2578125 C-12.67451172 36.41992188 -13.50917969 35.58203125 -14.36914062 34.71875 C-15.21669922 33.8628125 -16.06425781 33.006875 -16.9375 32.125 C-17.81212891 31.24585938 -18.68675781 30.36671875 -19.58789062 29.4609375 C-21.72757048 27.3095654 -23.86486597 25.15588208 -26 23 C-24.71085677 20.10658104 -23.45427047 18.2544225 -21.0234375 16.23046875 C-20.14606934 15.49038574 -20.14606934 15.49038574 -19.25097656 14.73535156 C-18.6319043 14.22456055 -18.01283203 13.71376953 -17.375 13.1875 C-16.10638902 12.12415327 -14.83815796 11.06035311 -13.5703125 9.99609375 C-12.95704102 9.4841748 -12.34376953 8.97225586 -11.71191406 8.44482422 C-8.89697111 6.06906375 -6.17303635 3.59277232 -3.453125 1.109375 C-2 0 -2 0 0 0 Z " fill="#F9880E" transform="translate(236,189)"></path></svg>